<svg width="512" height="512" viewBox="0 0 512 512" fill="none" xmlns="http://www.w3.org/2000/svg">
  <!-- Background -->
  <rect width="512" height="512" rx="80" fill="url(#gradient)"/>
  
  <!-- Wallet Main Body -->
  <path d="M128 180C128 157.909 145.909 140 168 140H344C366.091 140 384 157.909 384 180V200H400C422.091 200 440 217.909 440 240V340C440 362.091 422.091 380 400 380H168C145.909 380 128 362.091 128 340V180Z" fill="white" opacity="0.95"/>
  
  <!-- Wallet Fold -->
  <path d="M128 180C128 157.909 145.909 140 168 140H344C366.091 140 384 157.909 384 180V210H168C145.909 210 128 192.091 128 170V180Z" fill="white" opacity="0.8"/>
  
  <!-- Card Slot -->
  <rect x="160" y="230" width="200" height="20" rx="10" fill="#8B5CF6" opacity="0.3"/>
  
  <!-- Cards -->
  <rect x="180" y="250" width="160" height="90" rx="8" fill="#8B5CF6" opacity="0.8"/>
  <rect x="170" y="240" width="160" height="90" rx="8" fill="#8B5CF6" opacity="0.9"/>
  <rect x="160" y="230" width="160" height="90" rx="8" fill="#8B5CF6"/>
  
  <!-- Card Details -->
  <circle cx="185" cy="255" r="8" fill="white" opacity="0.8"/>
  <rect x="200" y="250" width="60" height="6" rx="3" fill="white" opacity="0.6"/>
  <rect x="200" y="262" width="40" height="4" rx="2" fill="white" opacity="0.4"/>
  
  <!-- Card Chip -->
  <rect x="275" y="280" width="20" height="15" rx="3" fill="white" opacity="0.8"/>
  
  <!-- Money Symbol -->
  <circle cx="380" cy="280" r="25" fill="#10B981" opacity="0.9"/>
  <text x="380" y="290" font-family="Arial, sans-serif" font-size="24" font-weight="bold" text-anchor="middle" fill="white">$</text>
  
  <!-- Gradient Definition -->
  <defs>
    <linearGradient id="gradient" x1="0%" y1="0%" x2="100%" y2="100%">
      <stop offset="0%" style="stop-color:#8B5CF6;stop-opacity:1" />
      <stop offset="50%" style="stop-color:#7C3AED;stop-opacity:1" />
      <stop offset="100%" style="stop-color:#6D28D9;stop-opacity:1" />
    </linearGradient>
  </defs>
</svg>